<?xml version="1.0" encoding="utf-8"?>
<!-- Generator: Adobe Illustrator 16.0.4, SVG Export Plug-In . SVG Version: 6.00 Build 0)  -->
<!DOCTYPE svg PUBLIC "-//W3C//DTD SVG 1.1//EN" "http://www.w3.org/Graphics/SVG/1.1/DTD/svg11.dtd">
<svg version="1.1" id="Layer_1" xmlns="http://www.w3.org/2000/svg" xmlns:xlink="http://www.w3.org/1999/xlink" x="0px" y="0px"
	 width="220px" height="220px" viewBox="0 0 220 220" enable-background="new 0 0 220 220" xml:space="preserve">
<path id="path6" fill="#FFFFFF" d="M151.88,1.012c-1.911,0.112-3.823,0.563-5.623,1.745c7.48,1.518,16.198,2.475,20.923,9.279
	c2.362,2.531,1.629,6.356-0.732,8.55c-4.442,5.345-12.147,6.974-18.672,5.288c-22.216-5.232-43.195-15.468-66.032-18.113
	C69.539,6.131,57.56,12.036,49.123,20.53c-7.762,7.818-10.629,19.685-9.056,30.372c1.745,8.494,7.987,17.268,17.098,18.506
	c-5.398-5.852-6.41-15.976-0.842-22.049c3.148-3.938,8.774-4.443,13.443-3.711c17.717,3.26,34.927,8.604,52.586,12.203
	c9.899,2.701,19.63,5.907,29.754,7.706c0.17,12.093,0.17,24.13,0,36.167c-6.522,4.892-12.711,10.124-19.124,15.128
	c6.244,4.67,12.657,9,19.069,13.388c0.393,17.043-0.059,34.141,0.225,51.182c-10.52,8.157-24.636,9.449-37.46,7.931
	c-13.61-0.729-25.703-8.886-34.589-18.727c14.962-7.989,30.147-15.469,45.445-22.781c0.562-26.885,0.112-53.827,0.226-80.768
	c-19.122,7.986-38.021,16.422-57.032,24.579c5.512-14.062,16.705-25.479,30.034-32.229c-3.486,0.225-7.143-0.057-10.406,1.462
	c-24.972,9.843-45.556,31.048-53.318,56.92c-5.175,16.424-3.487,34.423,2.082,50.451c6.974,17.889,19.853,33.693,36.953,42.747
	c9.616,4.949,19.911,9.617,30.933,9.731c22.779,1.912,46.738-6.693,62.093-23.849c6.694-7.199,10.067-16.594,13.442-25.649
	c3.095-8.941,4.5-18.446,4.163-27.952c-7.369,14.622-17.153,28.346-30.541,38.077c0.113-16.985-0.056-34.026,0.057-51.015
	c5.793-4.443,11.642-8.885,17.323-13.555c-5.793-5.117-11.53-10.236-17.323-15.354c0-11.981,0-23.961,0-35.886
	c12.992-0.673,28.01-7.535,31.496-21.204c2.417-8.887,3.713-19.46-1.743-27.558c-5.006-5.74-11.53-10.688-19.18-12.094
	C160.598,2.476,156.1,0.843,151.88,1.012z M90.97,83.018c-0.057,25.928,0.168,51.857-0.113,77.73
	c-4.331,1.688-8.605,3.545-12.824,5.455c-7.875-11.36-12.71-24.746-14.961-38.302c-0.62-11.473,1.518-23.061,5.513-33.803
	C76.063,90.555,83.432,86.673,90.97,83.018z"/>
</svg>
